/* XPM */
static char *_52ccb28e93c44d8eae5600e76fbccbbJCYrG1SLYtPh99eE[] = {
/* columns rows colors chars-per-pixel */
"12 16 7 1 ",
"  c None",
". c #25131A",
"X c #523B40",
"o c #895A45",
"O c #BF704D",
"+ c #90919E",
"@ c #ADC1CF",
/* pixels */
" OO      OO ",
" oo      oo ",
" oo      oo ",
"O+@OOOOOO@+O",
"oooooooooooo",
" XX......XX ",
" oo......oo ",
" oo......oo ",
" oo......oo ",
" oo......oo ",
" oo......oo ",
"O+@OOOOOO@+O",
"oooooooooooo",
" XX      XX ",
" oo      oo ",
" oo      oo "
};
