/* XPM */
static char *_9b4559e9248452ea23656daecb9f668EIQDapoaG5MPaA3N[] = {
/* columns rows colors chars-per-pixel */
"16 16 13 1 ",
"  c #357A46",
". c #3C911C",
"X c #439B25",
"o c #4EAA33",
"O c #50AC35",
"+ c #51AF37",
"@ c #56B53C",
"# c #5BBA42",
"$ c #63C74D",
"% c #7FC247",
"& c #7FCD50",
"* c #87CF52",
"= c #A3D555",
/* pixels */
"   XX=$$=X=$=+#X",
"@$* .=== X == . ",
"$*=o$   X@@..  =",
"== *$$o$@$$=.  =",
"  o=** o*$*=X X ",
"+#X=*. oo===..++",
"+$  .   ..   +$+",
"$* .##  o+. . &$",
"=. ##= X$+$ ++ =",
"oX.$$$=+&$$.*$+o",
".%o=*$*X=$&.=*=+",
"X&$ === o=. *** ",
" X   X  +X     o",
"=$+o +XXX++ +++X",
"=*$+ +=$$ +$XXX*",
"==* +=$$$ $$=. *"
};
