/* XPM */
static char *_d55010df3514b6887be07a39a619b2b5Gyy9KrbptKKp5y7[] = {
/* columns rows colors chars-per-pixel */
"24 29 8 1 ",
"  c #733E39",
". c #A22633",
"X c #BE4A2F",
"o c #F77622",
"O c #B86F50",
"+ c #D77643",
"@ c #C28569",
"# c #E4A672",
/* pixels */
"########################",
"#XXXXXXXXXXXXXXXXXXXXX.#",
"#XXXXXXXXXXXXXXXOOOOOO.#",
"#..OOOOOOOOO...OOO###OO#",
"#.O@#######OO. OO@####O#",
"#OO####### #OO O @####O#",
"#OO#########OO OO@@## O#",
"#OO@####O##OOO OOOOOOOO#",
"#O OO OOOOOO O  OO OOO #",
"# OOOOOOOOOOOO         #",
"#          OO OOOOOOOO #",
"#  OOOOOOO   O@@######O#",
"# O@##O##OO  O@###### ##",
"#O@#######OO O@#########",
"#O@#######OO OO@###O##O#",
"#OO@#####OOO  OO OOOOOO#",
"#O OO OOOO O OOOOOOOOOO#",
"#OOOOOOOOOOO  OOOOO OO #",
"########################",
"++++++++++++++++++++++++",
"X+++++++++o+++o+++o++++X",
"+o+oo+++++++++++++++++++",
"++++++++++++++++++++++++",
"XXXXXXXXXXXXXXXXXXXXXXXX",
"++++++++++++++++++++o+++",
"X+++o++++oo+++++++++o++X",
"++++++++ooo+oo+oo+++++++",
"++++++++++++++++++++++++",
"XXXXXXXXXXXXXXXXXXXXXXXX"
};
